<?xml version="1.0" standalone="no"?> <!DOCTYPE svg PUBLIC "-//W3C//DTD SVG 20010904//EN" "http://www.w3.org/TR/2001/REC-SVG-20010904/DTD/svg10.dtd"> <svg version="1.0" xmlns="http://www.w3.org/2000/svg" width="380.000000pt" height="375.000000pt" viewBox="0 0 380.000000 375.000000" preserveAspectRatio="xMidYMid meet"> <g transform="translate(0.000000,375.000000) scale(0.100000,-0.100000)" fill="#31a3c9" stroke="none"> <path d="M1209 3475 c-59 -7 -117 -17 -130 -21 -13 -4 -26 -8 -29 -9 -33 -6 -162 -55 -225 -87 -127 -63 -213 -125 -321 -233 -112 -112 -140 -148 -212 -285 -84 -160 -126 -326 -131 -520 -4 -151 50 -369 124 -499 17 -31 38 -67 46 -81 14 -25 158 -221 168 -230 4 -3 42 -47 86 -99 193 -228 662 -697 886 -888 l37 -30 78 13 c44 8 88 18 99 24 11 6 40 17 64 24 55 16 60 27 22 44 -102 45 -476 395 -882 827 -273 290 -401 478 -461 675 -19 63 -23 97 -23 220 0 129 3 155 28 234 28 92 88 219 141 296 48 71 174 193 251 242 97 62 192 103 315 134 92 24 125 28 265 28 148 1 167 -1 259 -28 154 -45 194 -64 351 -170 65 -44 95 -69 195 -162 139 -129 164 -150 223 -192 138 -96 269 -138 339 -109 63 27 88 95 59 166 -14 31 -58 54 -132 66 -57 9 -175 95 -348 254 -131 121 -316 253 -400 288 -20 8 -49 21 -66 29 -30 13 -85 32 -160 54 -122 36 -340 47 -516 25z m366 -18 c94 -11 215 -42 211 -53 -3 -7 2 -10 14 -7 10 3 33 -2 52 -10 18 -9 44 -18 57 -22 12 -4 38 -17 56 -29 18 -13 47 -29 64 -36 17 -7 31 -16 31 -21 0 -5 5 -9 10 -9 13 0 122 -80 133 -97 4 -7 13 -13 18 -13 18 0 109 -85 105 -97 -3 -8 1 -10 11 -6 13 5 15 2 10 -11 -4 -10 -3 -15 3 -11 13 8 101 -66 93 -78 -3 -6 -2 -7 4 -4 5 3 22 -5 39 -19 16 -14 39 -34 51 -44 12 -10 24 -16 27 -13 3 4 6 2 6 -4 0 -16 142 -83 177 -83 36 0 57 -22 71 -73 12 -43 5 -61 -31 -88 -26 -19 -72 -35 -64 -22 3 4 -12 7 -34 5 -26 -3 -44 1 -54 12 -9 9 -25 16 -36 16 -22 0 -139 60 -139 71 0 3 -13 12 -30 19 -20 8 -30 20 -30 34 0 17 -2 18 -10 6 -6 -9 -10 -10 -10 -3 0 6 -9 15 -20 18 -11 3 -20 13 -20 21 0 8 -7 14 -16 14 -10 0 -14 6 -11 14 3 7 0 13 -7 12 -7 0 -54 37 -105 84 -50 46 -112 98 -136 116 -25 17 -42 33 -39 36 2 3 -10 11 -28 19 -18 7 -35 16 -38 20 -11 14 -210 109 -229 109 -7 0 -22 5 -34 12 -12 6 -40 13 -62 15 -22 2 -54 8 -71 13 -39 13 -339 3 -384 -13 -8 -3 -37 -8 -64 -11 -28 -3 -52 -10 -55 -15 -4 -4 -24 -14 -46 -21 -22 -7 -55 -22 -74 -32 -18 -11 -40 -17 -47 -14 -8 3 -13 2 -11 -2 1 -4 -1 -7 -5 -7 -3 0 -18 -11 -31 -24 -15 -13 -31 -20 -38 -16 -8 5 -10 4 -5 -3 4 -7 -2 -16 -16 -21 -13 -5 -42 -27 -65 -49 -24 -22 -43 -38 -43 -35 0 9 -59 -58 -92 -103 -17 -24 -35 -41 -39 -38 -5 3 -6 -2 -3 -10 3 -9 1 -16 -5 -16 -6 0 -11 -7 -11 -15 0 -8 -4 -15 -10 -15 -5 0 -9 -6 -7 -12 1 -7 -3 -12 -10 -11 -7 2 -10 -4 -6 -12 3 -9 -1 -23 -9 -33 -24 -27 -79 -173 -84 -222 -3 -25 -10 -61 -16 -80 -15 -47 -15 -206 0 -251 7 -20 14 -59 15 -87 1 -27 5 -45 9 -39 3 6 10 -6 13 -26 4 -20 11 -37 16 -37 5 0 9 -8 9 -18 0 -10 7 -28 16 -40 8 -12 12 -22 7 -22 -4 0 -3 -4 3 -8 5 -4 20 -27 33 -52 13 -25 32 -53 43 -64 11 -10 17 -25 14 -33 -3 -8 -2 -12 3 -8 5 3 19 -8 31 -24 11 -17 30 -40 40 -53 11 -13 47 -56 80 -96 33 -40 72 -85 85 -100 14 -15 25 -33 25 -40 0 -7 4 -11 8 -8 10 6 82 -67 82 -83 0 -6 6 -11 13 -11 6 0 23 -14 37 -32 14 -17 113 -120 220 -227 107 -108 194 -199 193 -203 -2 -4 5 -4 14 -1 10 4 14 2 10 -4 -3 -5 5 -16 19 -23 14 -8 22 -20 19 -27 -2 -8 0 -11 5 -8 6 4 23 -6 38 -22 16 -15 49 -44 75 -63 26 -19 45 -40 42 -47 -2 -7 1 -10 8 -8 7 3 28 -10 47 -28 19 -18 48 -38 64 -45 34 -15 23 -35 -27 -47 -17 -4 -35 -9 -39 -10 -5 -1 -20 -3 -34 -4 -14 0 -22 -5 -19 -11 3 -5 0 -7 -8 -4 -7 2 -26 0 -41 -6 -15 -5 -34 -7 -41 -3 -20 11 -225 193 -258 228 -15 17 -33 35 -38 40 -96 88 -219 217 -215 224 3 5 -1 12 -10 15 -8 3 -12 2 -9 -4 3 -6 1 -10 -4 -10 -6 0 -11 4 -11 8 0 5 -30 40 -67 79 -169 177 -193 204 -188 213 3 6 -1 7 -10 4 -11 -5 -14 -2 -8 12 4 11 3 15 -4 11 -6 -4 -27 12 -48 34 -30 33 -35 43 -24 51 12 8 12 9 0 6 -20 -6 -72 47 -65 66 4 11 2 15 -8 11 -16 -6 -55 42 -49 60 1 6 0 7 -4 3 -8 -7 -35 15 -35 28 0 5 -14 23 -31 40 -32 33 -49 59 -69 104 -6 14 -22 39 -35 56 -21 27 -45 76 -80 159 -7 17 -17 51 -24 78 -6 26 -17 68 -23 95 -19 71 -15 398 4 386 5 -3 9 2 7 12 -4 35 58 244 73 244 4 0 8 7 8 15 0 23 41 96 51 89 5 -3 6 3 2 12 -4 12 -3 15 5 10 8 -5 10 -2 6 8 -4 10 -1 16 9 16 8 0 18 7 21 16 4 10 2 13 -6 8 -6 -4 6 15 26 42 21 27 42 48 47 47 5 -2 8 3 6 10 -1 6 4 11 11 9 8 -1 11 1 8 6 -10 17 176 188 194 177 6 -3 9 -1 8 7 -2 7 4 12 13 10 8 -1 28 11 44 28 16 16 33 30 38 30 14 0 81 33 88 43 3 4 12 9 20 11 8 1 24 8 37 15 13 7 31 10 40 6 9 -3 13 -3 9 1 -12 12 60 34 193 58 121 22 294 28 415 13z"/> <path d="M2588 2803 c7 -3 16 -2 19 1 4 3 -2 6 -13 5 -11 0 -14 -3 -6 -6z"/> <path d="M410 2620 c-6 -11 -8 -20 -6 -20 3 0 10 9 16 20 6 11 8 20 6 20 -3 0 -10 -9 -16 -20z"/> <path d="M301 1854 c0 -11 3 -14 6 -6 3 7 2 16 -1 19 -3 4 -6 -2 -5 -13z"/> <path d="M1255 760 c-3 -5 -1 -10 4 -10 6 0 11 5 11 10 0 6 -2 10 -4 10 -3 0 -8 -4 -11 -10z"/> <path d="M2160 3474 c-123 -20 -153 -28 -157 -40 -2 -6 9 -14 24 -17 28 -6 163 -89 216 -133 26 -22 38 -24 125 -24 113 0 236 -25 346 -69 88 -35 141 -67 216 -130 30 -25 63 -53 73 -61 31 -25 86 -108 113 -168 20 -45 26 -74 27 -137 1 -71 -3 -89 -31 -148 -106 -226 -362 -294 -653 -172 -91 38 -172 95 -294 206 -110 100 -116 104 -190 127 -107 34 -215 8 -315 -76 -86 -72 -318 -298 -440 -428 -212 -227 -240 -271 -240 -378 0 -88 21 -132 120 -245 104 -120 450 -463 542 -539 122 -99 223 -123 342 -82 67 23 102 46 176 116 130 123 230 188 360 235 57 21 83 24 206 24 140 0 141 0 205 -33 86 -45 134 -93 176 -177 33 -64 36 -77 36 -155 -1 -72 -5 -95 -31 -150 -16 -36 -43 -83 -60 -106 -29 -40 -151 -144 -202 -173 -157 -90 -339 -140 -507 -141 -66 0 -77 -3 -116 -32 -52 -39 -71 -52 -115 -78 -18 -11 -31 -24 -28 -29 3 -5 0 -8 -7 -8 -28 1 -77 -16 -77 -28 0 -7 15 -15 33 -18 17 -3 91 -14 163 -25 73 -11 147 -18 165 -16 19 2 79 8 134 13 56 6 136 22 178 36 43 14 83 25 89 25 13 0 166 70 183 83 6 4 39 26 75 49 65 42 207 176 247 233 31 45 73 132 90 184 23 74 28 254 9 328 -27 103 -97 221 -165 280 -14 12 -39 34 -56 48 -83 70 -281 135 -413 135 -122 0 -286 -39 -417 -100 -76 -36 -211 -132 -284 -203 -66 -64 -127 -107 -152 -107 -30 0 -163 115 -363 314 -218 218 -283 292 -295 334 -8 26 -5 35 27 70 21 21 71 77 114 123 218 239 456 463 506 476 31 7 77 -13 110 -51 15 -17 57 -56 92 -86 36 -30 67 -57 70 -60 14 -14 101 -70 145 -93 98 -51 181 -79 288 -98 136 -24 188 -24 302 0 254 51 437 220 491 453 38 163 6 326 -98 498 -32 53 -185 199 -263 252 -192 127 -394 185 -649 186 -61 0 -149 -6 -196 -14z m395 -14 c17 0 25 -4 18 -8 -6 -4 10 -8 35 -9 59 -2 272 -79 287 -103 4 -6 11 -8 16 -5 5 4 9 1 9 -4 0 -6 7 -11 15 -11 8 0 15 -5 15 -12 0 -6 3 -9 6 -5 7 7 99 -59 148 -106 18 -18 50 -47 70 -65 20 -18 36 -39 36 -47 0 -8 4 -15 8 -15 14 0 62 -81 55 -92 -3 -7 -1 -8 5 -4 7 4 12 1 12 -8 0 -9 5 -16 10 -16 6 0 10 -9 10 -19 0 -11 5 -23 10 -26 17 -10 12 -35 -6 -28 -9 3 -5 -6 10 -22 14 -15 26 -33 27 -39 0 -6 2 -22 5 -36 11 -73 3 -226 -15 -255 -3 -5 -6 -15 -7 -22 -4 -23 -49 -108 -66 -124 -10 -9 -18 -21 -18 -26 0 -15 -64 -83 -78 -83 -6 0 -12 -6 -12 -12 -1 -14 -64 -57 -115 -79 -16 -8 -32 -17 -35 -20 -3 -4 -41 -17 -85 -30 -116 -33 -308 -31 -421 4 -112 36 -192 66 -174 67 8 0 -8 9 -36 18 -28 10 -59 26 -69 35 -9 10 -30 24 -46 32 -20 11 -27 20 -23 33 4 12 3 13 -3 4 -7 -10 -14 -8 -31 6 -12 11 -22 24 -22 30 0 5 -9 12 -21 15 -12 3 -18 10 -14 16 3 6 0 11 -7 11 -7 0 -28 15 -47 33 -79 74 -101 85 -145 75 -23 -5 -53 -20 -67 -34 -14 -13 -29 -21 -33 -17 -4 5 -6 3 -4 -3 4 -14 -67 -75 -77 -66 -5 4 -5 1 0 -7 4 -8 2 -16 -5 -21 -22 -13 -272 -263 -359 -358 -140 -154 -149 -171 -110 -220 39 -50 114 -135 136 -155 12 -11 20 -24 17 -29 -3 -5 -2 -7 3 -6 13 4 153 -144 146 -155 -3 -5 -1 -7 4 -4 14 9 135 -103 129 -119 -3 -7 0 -11 7 -8 15 5 113 -84 109 -99 -2 -7 0 -9 4 -5 6 7 45 -19 85 -58 13 -12 18 -12 21 -2 4 10 10 10 32 0 15 -7 24 -8 21 -2 -3 6 6 21 22 34 53 45 78 68 128 115 63 60 150 123 158 114 4 -3 7 -1 7 6 0 7 15 19 33 27 17 8 39 18 47 23 14 8 69 33 80 36 76 21 97 29 107 37 20 16 261 30 323 17 99 -19 145 -32 168 -47 12 -8 22 -12 22 -9 0 13 103 -53 147 -94 126 -118 191 -249 192 -386 1 -40 2 -76 3 -80 2 -9 -11 -100 -19 -126 -2 -9 -9 -15 -14 -12 -5 3 -6 -1 -3 -10 4 -8 -1 -26 -10 -40 -9 -14 -14 -30 -11 -35 3 -6 2 -10 -3 -10 -5 0 -15 -13 -22 -30 -7 -16 -16 -30 -21 -30 -5 0 -8 -3 -7 -8 8 -23 -159 -195 -225 -229 -23 -13 -37 -23 -32 -23 6 0 -15 -13 -46 -28 -31 -15 -63 -33 -72 -40 -9 -8 -22 -10 -28 -6 -7 4 -9 3 -6 -3 8 -12 -10 -20 -153 -64 -136 -41 -147 -43 -330 -43 -142 0 -291 17 -290 33 1 8 69 51 81 51 6 0 8 4 5 9 -3 5 7 14 23 21 16 6 37 20 47 31 9 10 23 19 30 19 7 0 14 4 16 9 2 5 53 11 113 15 61 3 128 10 150 15 22 6 49 8 60 5 14 -4 16 -3 7 4 -10 7 -4 11 24 17 22 4 43 10 49 13 5 4 16 7 23 8 7 1 45 18 86 38 40 20 79 36 85 36 6 0 11 4 11 9 0 5 12 16 26 26 15 9 23 12 19 5 -4 -6 16 11 45 38 34 32 58 48 68 44 10 -3 13 -1 8 6 -9 15 32 75 45 67 5 -4 6 2 2 11 -5 13 -3 15 7 9 10 -6 12 -4 7 8 -3 10 -2 17 3 17 4 0 11 14 15 30 4 17 10 28 14 26 9 -6 32 170 26 204 -5 34 -38 124 -48 131 -5 3 -8 9 -8 13 3 20 0 26 -9 21 -5 -3 -10 0 -10 8 0 18 -96 107 -115 107 -8 0 -20 6 -27 13 -17 17 -46 29 -82 33 -16 2 -34 8 -40 13 -18 15 -195 3 -271 -18 -38 -11 -73 -17 -79 -14 -5 4 -6 1 -1 -7 5 -9 2 -10 -14 -5 -11 3 -21 2 -21 -3 0 -14 -99 -64 -112 -56 -7 4 -8 3 -4 -4 4 -7 -3 -16 -18 -22 -14 -5 -30 -19 -36 -30 -6 -12 -17 -19 -24 -17 -7 3 -19 1 -27 -5 -11 -7 -9 -8 6 -4 13 4 8 -4 -15 -23 -19 -16 -39 -27 -45 -24 -5 4 -6 2 -2 -2 11 -12 -91 -105 -115 -105 -11 0 -17 -4 -14 -8 13 -22 -100 -55 -167 -49 -59 6 -127 24 -126 35 3 18 -2 26 -9 15 -9 -14 -97 51 -107 79 -4 10 -12 17 -18 15 -7 -1 -11 3 -10 10 2 8 -4 10 -14 6 -12 -5 -15 -2 -10 10 3 9 3 16 -1 15 -13 -4 -62 34 -56 43 3 5 2 8 -3 7 -7 -3 -137 114 -167 150 -25 29 -75 83 -140 151 -38 39 -65 71 -60 72 5 0 2 3 -7 7 -18 8 -93 92 -110 123 -13 24 -18 48 -25 116 -4 40 -1 58 13 79 12 19 13 25 4 20 -25 -16 32 75 79 124 25 26 71 78 103 114 32 36 63 64 68 61 5 -4 9 1 9 9 0 16 134 156 150 156 5 0 12 5 16 12 5 7 3 8 -6 3 -9 -6 -11 -4 -6 4 5 7 14 10 21 7 7 -2 12 3 11 12 -1 11 6 16 17 15 12 0 16 4 13 12 -5 13 41 52 56 47 4 -1 5 5 2 13 -4 8 -2 15 2 15 5 0 25 15 45 33 97 88 111 98 132 92 17 -5 19 -4 7 4 -8 5 -12 11 -10 13 34 22 64 30 134 34 76 5 88 4 140 -21 33 -16 54 -31 50 -37 -4 -7 -2 -8 4 -4 7 4 42 -21 84 -60 131 -120 148 -134 158 -134 5 0 10 -6 10 -14 0 -8 6 -13 13 -13 14 2 150 -65 155 -76 2 -4 8 -4 13 -1 6 3 16 1 24 -6 7 -6 19 -10 27 -9 7 1 26 -3 41 -9 16 -7 40 -12 55 -13 15 -1 38 -4 52 -8 33 -9 133 5 195 28 27 10 56 16 64 13 8 -3 11 0 7 7 -4 6 -2 11 4 11 18 0 101 72 122 105 10 17 18 26 18 20 1 -21 57 124 63 162 9 56 -25 254 -41 238 -9 -9 -32 54 -26 70 4 8 1 15 -6 15 -6 0 -8 -4 -5 -10 3 -5 1 -10 -4 -10 -6 0 -11 6 -11 14 0 7 -7 19 -15 26 -8 7 -12 17 -8 23 3 6 1 7 -6 3 -7 -4 -27 9 -50 33 -22 23 -42 41 -46 41 -8 0 -79 53 -83 63 -2 4 -8 7 -13 7 -5 0 -28 12 -52 27 -23 14 -49 26 -57 26 -8 0 -21 5 -29 11 -34 27 -180 56 -314 63 l-109 5 -71 48 c-40 26 -82 52 -95 59 -12 7 -20 16 -17 22 4 5 -4 9 -17 9 -18 0 -20 2 -8 10 8 5 25 10 38 10 15 0 21 4 16 12 -4 6 -3 8 3 5 5 -3 39 -2 74 2 35 5 120 7 189 5 69 -2 139 -4 155 -4z"/> <path d="M1545 2270 c-3 -6 1 -7 9 -4 18 7 21 14 7 14 -6 0 -13 -4 -16 -10z"/> <path d="M1270 1681 c0 -6 4 -13 10 -16 6 -3 7 1 4 9 -7 18 -14 21 -14 7z"/> <path d="M1995 1021 c-6 -11 13 -26 22 -17 4 3 1 6 -6 6 -7 0 -9 5 -6 10 3 6 4 10 1 10 -3 0 -7 -4 -11 -9z"/> <path d="M1459 3121 c-146 -127 -628 -601 -758 -746 -30 -33 -71 -78 -91 -100 -120 -132 -112 -119 -100 -167 7 -24 30 -82 53 -129 l40 -87 55 72 c95 122 174 211 402 450 297 311 649 632 724 660 11 4 15 10 10 15 -19 16 -161 61 -221 69 l-62 9 -52 -46z m145 9 c64 -10 146 -38 146 -50 0 -4 -11 -12 -24 -18 -19 -9 -164 -129 -210 -175 -7 -7 -36 -32 -65 -57 -29 -25 -111 -103 -182 -173 -75 -74 -134 -125 -141 -121 -7 5 -8 3 -4 -5 5 -8 -15 -34 -53 -72 -34 -32 -61 -64 -61 -69 0 -6 -4 -9 -8 -7 -9 2 -68 -56 -74 -73 -2 -7 -118 -135 -189 -210 -8 -9 -19 -25 -22 -34 -5 -11 -13 -16 -23 -12 -9 3 -12 2 -9 -5 8 -12 -14 -41 -25 -34 -4 3 -11 -2 -14 -11 -4 -10 -2 -13 7 -8 6 4 -1 -7 -18 -24 -24 -24 -32 -27 -38 -16 -4 8 -5 19 -1 26 4 6 3 8 -3 5 -16 -10 -55 81 -57 133 -1 33 3 44 12 42 8 -1 12 3 10 9 -4 13 60 85 73 82 5 -2 8 1 6 7 -2 8 25 39 171 197 41 45 43 46 58 27 14 -18 15 -18 4 5 -11 21 -5 31 87 126 54 56 104 101 111 99 7 -2 11 0 8 4 -7 12 92 104 104 97 5 -3 12 5 16 19 3 14 38 53 76 88 39 35 84 76 99 91 16 16 29 26 29 23 0 -4 25 18 55 49 60 59 61 60 149 45z"/> <path d="M211 1663 c-30 -90 -53 -249 -50 -348 4 -167 57 -367 130 -497 57 -101 72 -123 119 -183 44 -54 167 -177 215 -215 211 -163 447 -243 747 -254 110 -4 272 20 393 60 84 27 315 133 315 144 0 3 15 13 33 22 39 20 143 103 251 201 177 161 293 240 367 250 74 9 109 47 109 117 0 82 -56 127 -143 116 -113 -15 -221 -78 -387 -224 -248 -218 -324 -275 -450 -337 -245 -120 -508 -147 -750 -76 -332 97 -572 333 -678 666 -22 70 -26 100 -28 238 -1 143 -4 161 -22 182 -36 41 -132 182 -132 194 0 31 -19 4 -39 -56z m44 -11 c-3 -9 -3 -13 1 -10 9 10 32 -15 27 -28 -2 -7 1 -15 8 -20 8 -5 10 -3 4 7 -19 32 7 -1 49 -64 25 -37 43 -75 42 -84 -14 -72 -15 -108 -5 -178 6 -44 11 -99 12 -122 1 -23 4 -37 8 -31 4 5 10 -7 14 -29 4 -21 16 -58 27 -82 14 -32 17 -46 8 -51 -8 -5 -5 -9 7 -12 11 -3 32 -31 48 -62 15 -31 32 -56 36 -56 4 0 11 -9 14 -21 4 -11 19 -33 33 -48 48 -50 63 -72 57 -81 -3 -6 1 -7 9 -4 11 4 19 -2 26 -20 5 -14 12 -26 15 -26 4 0 3 6 -1 13 -4 6 2 3 13 -8 11 -11 18 -24 15 -29 -3 -5 0 -6 7 -2 13 9 43 -12 36 -24 -3 -5 9 -11 26 -15 17 -4 28 -9 25 -12 -3 -3 13 -16 37 -27 23 -12 53 -29 67 -38 32 -22 157 -68 181 -68 11 0 19 -5 19 -11 0 -6 9 -8 21 -4 14 5 19 4 15 -4 -4 -6 -1 -9 7 -5 8 3 43 0 78 -6 72 -14 185 -14 274 0 119 18 171 29 200 41 17 7 35 13 40 14 6 0 20 7 33 14 13 7 30 10 38 7 8 -3 13 -2 10 3 -3 4 18 18 47 31 29 12 62 32 74 42 12 12 27 17 34 13 7 -5 10 -4 6 2 -3 5 11 19 31 31 20 11 50 34 66 51 23 24 32 28 43 19 10 -8 12 -8 8 4 -7 18 39 63 56 53 7 -5 10 -4 6 2 -9 14 91 105 105 97 7 -5 9 -1 5 9 -4 11 -1 17 8 17 8 0 15 4 15 8 0 5 29 32 66 61 89 72 225 139 291 144 29 2 50 1 48 -4 -3 -4 5 -5 17 -1 16 4 19 2 13 -8 -6 -10 -4 -12 8 -7 11 4 19 -3 26 -25 17 -50 11 -115 -10 -102 -5 3 -9 -2 -9 -10 0 -9 -9 -16 -21 -16 -13 0 -18 -4 -13 -12 4 -6 3 -8 -3 -5 -15 10 -119 -23 -142 -44 -11 -11 -23 -19 -27 -19 -4 0 -29 -18 -55 -40 -26 -22 -50 -40 -53 -40 -3 0 -20 -14 -38 -31 -105 -98 -97 -93 -115 -78 -15 13 -15 12 -6 -6 10 -18 2 -28 -62 -83 -69 -59 -94 -75 -80 -52 10 16 -1 11 -16 -7 -12 -14 -12 -16 0 -8 10 5 12 4 7 -3 -4 -7 -12 -12 -17 -12 -5 0 -20 -9 -32 -21 -12 -11 -43 -30 -69 -42 -27 -11 -48 -24 -48 -29 0 -4 -6 -8 -13 -8 -7 0 -53 -20 -103 -45 -50 -24 -112 -49 -140 -55 -27 -7 -58 -14 -69 -17 -11 -3 -49 -9 -85 -14 -36 -5 -94 -14 -131 -20 -36 -6 -85 -9 -110 -5 -24 3 -68 7 -96 7 -29 0 -53 4 -53 9 0 4 -8 6 -19 3 -18 -4 -103 17 -226 58 -98 33 -115 41 -109 50 3 5 0 9 -6 9 -23 0 -123 55 -156 87 -19 18 -38 33 -42 34 -13 2 -37 18 -28 19 5 0 -4 10 -20 23 -16 12 -30 21 -31 20 -5 -5 -49 42 -46 48 1 3 -8 12 -20 18 -32 19 -109 119 -101 133 4 6 3 8 -3 5 -14 -9 -56 61 -47 75 4 6 3 8 -3 5 -12 -7 -36 40 -28 54 3 5 0 6 -8 3 -8 -3 -17 2 -21 11 -3 9 -2 14 2 11 4 -2 -5 22 -21 56 -16 33 -30 69 -32 81 -2 12 -11 47 -20 77 -24 77 -30 136 -29 280 0 115 17 230 32 230 4 0 7 13 8 29 1 40 12 64 25 56 6 -4 8 -14 4 -23z"/> <path d="M2245 540 c-3 -6 1 -7 9 -4 18 7 21 14 7 14 -6 0 -13 -4 -16 -10z"/> <path d="M1020 426 c0 -2 7 -7 16 -10 8 -3 12 -2 9 4 -6 10 -25 14 -25 6z"/> </g> </svg>